<svg width="1920" height="541" viewBox="0 0 1920 541" fill="none" xmlns="http://www.w3.org/2000/svg">
<path d="M539.539 1.40454H415.742C445.285 1.40454 474.827 22.2982 742.116 159.002C930.625 255.415 1074.82 297.497 1294.98 281.976C1199.79 285.956 1034.49 295.63 831.447 175.717C678.811 85.576 622.539 41.4009 539.539 1.40454Z" fill="url(#paint0_linear)"/>
<path d="M375.409 0H0V356.242C0 356.242 206.686 468.613 582.094 423.186C716.651 406.904 1148.72 309.022 1325.88 277.94C1222.54 289.297 1036.24 298.86 819.713 200.834C611.621 106.627 485.079 23.9088 375.409 0Z" fill="url(#paint1_linear)"/>
<g filter="url(#filter0_dd)">
<path d="M842.549 383.517C474.022 484.61 178.637 450.169 0 383.517C341.802 538.246 704.703 550.438 1185.76 394.229C1687.91 231.168 1920 313.294 1920 313.294V285.918C1920 285.918 1662.59 158.565 842.549 383.517Z" fill="white"/>
</g>
<path d="M842.549 383.668C474.022 484.876 178.637 450.396 0 383.668C292.571 513.549 643.746 533.719 1116.84 383.668C1710.42 195.4 1920 285.959 1920 285.959C1920 285.959 1662.59 158.461 842.549 383.668Z" fill="#01B5B4"/>
<path d="M842.549 383.227C474.022 484.102 178.637 449.735 0 383.227C320.703 510.305 654.066 486.552 1071.82 361.85C1652.75 188.442 1920 285.841 1920 285.841C1920 285.841 1662.59 158.763 842.549 383.227Z" fill="url(#paint2_linear)"/>
<path d="M892.465 370.018C875.93 374.387 859.155 378.904 842.138 383.572C837.031 384.973 855.984 378.981 892.465 370.018C1673.07 163.758 1920 285.933 1920 285.933V540.746C1666.56 211.642 1070.59 326.254 892.465 370.018Z" fill="url(#paint3_linear)"/>
<defs>
<filter id="filter0_dd" x="-10" y="250.007" width="1950" height="285.625" filterUnits="userSpaceOnUse" color-interpolation-filters="sRGB">
<feFlood flood-opacity="0" result="BackgroundImageFix"/>
<feColorMatrix in="SourceAlpha" type="matrix" values="0 0 0 0 0 0 0 0 0 0 0 0 0 0 0 0 0 0 127 0"/>
<feOffset dx="5" dy="15"/>
<feGaussianBlur stdDeviation="7.5"/>
<feColorMatrix type="matrix" values="0 0 0 0 0 0 0 0 0 0 0 0 0 0 0 0 0 0 0.2 0"/>
<feBlend mode="normal" in2="BackgroundImageFix" result="effect1_dropShadow"/>
<feColorMatrix in="SourceAlpha" type="matrix" values="0 0 0 0 0 0 0 0 0 0 0 0 0 0 0 0 0 0 127 0"/>
<feOffset dy="10"/>
<feGaussianBlur stdDeviation="5"/>
<feColorMatrix type="matrix" values="0 0 0 0 0 0 0 0 0 0 0 0 0 0 0 0 0 0 0.1 0"/>
<feBlend mode="normal" in2="effect1_dropShadow" result="effect2_dropShadow"/>
<feBlend mode="normal" in="SourceGraphic" in2="effect2_dropShadow" result="shape"/>
</filter>
<linearGradient id="paint0_linear" x1="504.37" y1="1.40454" x2="1166.43" y2="423.446" gradientUnits="userSpaceOnUse">
<stop stop-color="white" stop-opacity="0"/>
<stop offset="1" stop-color="#8A8A8A"/>
</linearGradient>
<linearGradient id="paint1_linear" x1="627.087" y1="21.5179" x2="554.154" y2="452.838" gradientUnits="userSpaceOnUse">
<stop stop-color="#064779"/>
<stop offset="1" stop-color="#154163"/>
</linearGradient>
<linearGradient id="paint2_linear" x1="1566.95" y1="250.212" x2="418.01" y2="549.51" gradientUnits="userSpaceOnUse">
<stop stop-opacity="0.6"/>
<stop offset="0.486227" stop-opacity="0.03"/>
<stop offset="1" stop-opacity="0.6"/>
</linearGradient>
<linearGradient id="paint3_linear" x1="1203.77" y1="302.603" x2="1978.76" y2="415.018" gradientUnits="userSpaceOnUse">
<stop stop-opacity="0.23"/>
<stop offset="1" stop-opacity="0"/>
</linearGradient>
</defs>
</svg>
