<svg width="122" height="122" viewBox="0 0 122 122" fill="none" xmlns="http://www.w3.org/2000/svg">
<circle cx="61" cy="61" r="61" fill="#01B5B4"/>
<g clip-path="url(#clip0)">
<path d="M40 41.9999H46C46.5523 41.9999 47 41.5522 47 40.9999C47 40.4477 46.5523 39.9999 46 39.9999H40C39.4477 39.9999 39 40.4477 39 40.9999C39 41.5522 39.4477 41.9999 40 41.9999Z" fill="white"/>
<path d="M51 41.9999H60C60.5523 41.9999 61 41.5522 61 40.9999C61 40.4477 60.5523 39.9999 60 39.9999H51C50.4477 39.9999 50 40.4477 50 40.9999C50 41.5522 50.4477 41.9999 51 41.9999Z" fill="white"/>
<path d="M40 53H72C72.5523 53 73 52.5523 73 52C73 51.4477 72.5523 51 72 51H40C39.4477 51 39 51.4477 39 52C39 52.5523 39.4477 53 40 53Z" fill="white"/>
<path d="M40 56.9999H54C54.5523 56.9999 55 56.5522 55 55.9999C55 55.4477 54.5523 54.9999 54 54.9999H40C39.4477 54.9999 39 55.4477 39 55.9999C39 56.5522 39.4477 56.9999 40 56.9999Z" fill="white"/>
<path d="M40 65H54C54.5523 65 55 64.5523 55 64C55 63.4477 54.5523 63 54 63H40C39.4477 63 39 63.4477 39 64C39 64.5523 39.4477 65 40 65Z" fill="white"/>
<path d="M40 73H54C54.5523 73 55 72.5523 55 72C55 71.4477 54.5523 71 54 71H40C39.4477 71 39 71.4477 39 72C39 72.5523 39.4477 73 40 73Z" fill="white"/>
<path d="M40 81H54C54.5523 81 55 80.5523 55 80C55 79.4477 54.5523 79 54 79H40C39.4477 79 39 79.4477 39 80C39 80.5523 39.4477 81 40 81Z" fill="white"/>
<path d="M93.4 60.13L82 55.207V34C82 32.3431 80.6569 31 79 31H41C39.3431 31 38 32.3431 38 34V35H37C35.3431 35 34 36.3431 34 38V88C34 89.6569 35.3431 91 37 91H75C75.809 90.9982 76.5828 90.6688 77.145 90.087L77.965 90.67C78.5849 91.11 79.4151 91.11 80.035 90.67L89.71 83.783C92.392 81.8794 93.9898 78.7979 94 75.509V61.048C94.0006 60.6498 93.7649 60.2893 93.4 60.13ZM40 34C40 33.4477 40.4477 33 41 33H79C79.5523 33 80 33.4477 80 34V54.343L79.4 54.082C79.1473 53.973 78.8608 53.973 78.608 54.082L78.008 54.343V48C78.008 47.978 77.997 47.957 77.995 47.935C77.99 47.8512 77.9739 47.7685 77.947 47.689C77.94 47.666 77.941 47.642 77.932 47.62C77.923 47.598 77.916 47.598 77.911 47.586C77.8623 47.4772 77.7946 47.378 77.711 47.293L65.711 35.293C65.626 35.2094 65.5268 35.1417 65.418 35.093C65.405 35.087 65.396 35.077 65.384 35.072C65.372 35.067 65.338 35.064 65.316 35.057C65.2354 35.0302 65.1517 35.0137 65.067 35.008C65.042 35.011 65.022 35 65 35H40V34ZM66 38.414L74.586 47H67C66.4477 47 66 46.5523 66 46V38.414ZM75 89H37C36.4477 89 36 88.5523 36 88V38C36 37.4477 36.4477 37 37 37H64V46C64 47.6569 65.3431 49 67 49H76V55.207L72.781 56.6C72.9192 56.4302 72.9963 56.2189 73 56C73 55.4477 72.5523 55 72 55H58C57.4477 55 57 55.4477 57 56C57 56.5523 57.4477 57 58 57H71.849L67.219 59H40C39.4477 59 39 59.4477 39 60C39 60.5523 39.4477 61 40 61H64.007C64.007 61.016 64 61.031 64 61.048V63H58C57.4477 63 57 63.4477 57 64C57 64.5523 57.4477 65 58 65H64V67H40C39.4477 67 39 67.4477 39 68C39 68.5523 39.4477 69 40 69H64V71H58C57.4477 71 57 71.4477 57 72C57 72.5523 57.4477 73 58 73H64V75H40C39.4477 75 39 75.4477 39 76C39 76.5523 39.4477 77 40 77H64.125C64.2244 77.6823 64.394 78.3525 64.631 79H58C57.4477 79 57 79.4477 57 80C57 80.5523 57.4477 81 58 81H65.641C66.1136 81.7358 66.6785 82.4079 67.322 83H40C39.4477 83 39 83.4477 39 84C39 84.5523 39.4477 85 40 85H70L75.448 88.878C75.3107 88.9541 75.157 88.996 75 89ZM92 75.509C91.9903 78.1506 90.7058 80.625 88.551 82.153L79 88.952L69.449 82.152C67.2945 80.6242 66.0101 78.1502 66 75.509V61.709L67.81 60.927L67.829 60.919L79 56.089L92 61.705V75.509Z" fill="white"/>
<path d="M78.6 58.439L68.6 62.759C68.2351 62.9183 67.9994 63.2789 68 63.677V75.509C68.0091 77.5033 68.9803 79.3706 70.608 80.523L78.42 86.084C78.7672 86.3312 79.2328 86.3312 79.58 86.084L87.392 80.523C89.0194 79.3704 89.9906 77.5032 90 75.509V63.677C90.0006 63.2789 89.7649 62.9183 89.4 62.759L79.4 58.439C79.1449 58.3277 78.855 58.3277 78.6 58.439ZM88 64.339V75.509C87.9927 76.8587 87.3338 78.1218 86.231 78.9L79 84.042L71.769 78.894C70.6675 78.1173 70.0087 76.8567 70 75.509V64.334L79 60.447L88 64.339Z" fill="white"/>
<path d="M73.6 73.2001C73.3142 72.9857 72.9357 72.9401 72.6072 73.0805C72.2786 73.2208 72.0499 73.5258 72.0072 73.8805C71.9644 74.2352 72.1142 74.5857 72.4 74.8001L76.4 77.8001C76.832 78.1243 77.4435 78.0469 77.781 77.6251L85.781 67.6251C86.1262 67.1938 86.0563 66.5643 85.625 66.2191C85.1937 65.8739 84.5642 65.9438 84.219 66.3751L76.825 75.6191L73.6 73.2001Z" fill="white"/>
</g>
<defs>
<clipPath id="clip0">
<rect width="60" height="60" fill="white" transform="translate(34 31)"/>
</clipPath>
</defs>
</svg>
