<svg width="40" height="40" viewBox="0 0 40 40" fill="none" xmlns="http://www.w3.org/2000/svg">
<g clip-path="url(#clip0)">
<path d="M24.9423 25.9704C25.6916 24.7181 26.7933 24.0766 28.2542 24.0595C29.7152 24.0424 30.4525 23.2983 30.4764 21.8339C30.497 20.3763 31.1316 19.2746 32.3839 18.5288C33.6396 17.7795 33.9116 16.7719 33.1965 15.4957C32.4848 14.2229 32.4848 12.9501 33.1965 11.6739C33.9116 10.4011 33.6413 9.39525 32.3839 8.64595C31.1316 7.89495 30.4953 6.79496 30.4764 5.33058C30.4525 3.87305 29.7152 3.12889 28.2542 3.11178C26.7933 3.09125 25.6916 2.45316 24.9423 1.20091C24.193 -0.0547567 23.1854 -0.326761 21.9126 0.388319C20.6398 1.09998 19.3636 1.09998 18.0908 0.388319C16.8164 -0.32505 15.8087 -0.0547567 15.0595 1.20091C14.3119 2.45487 13.2085 3.09296 11.7492 3.11178C10.2917 3.12889 9.55094 3.87305 9.53041 5.33058C9.50646 6.79496 8.87178 7.89324 7.61954 8.64595C6.36387 9.39525 6.08845 10.3994 6.80695 11.6739C7.52203 12.9501 7.52203 14.2229 6.80695 15.4957C6.08845 16.7719 6.36216 17.7812 7.61954 18.5288C8.87178 19.2746 9.50817 20.3763 9.53041 21.8339C9.55094 23.2965 10.2917 24.0424 11.7492 24.0595C13.2102 24.0766 14.3119 24.7181 15.0612 25.9704C15.8105 27.2261 16.8181 27.4981 18.0908 26.7796C19.3636 26.0747 20.6398 26.0747 21.9126 26.7796C23.1854 27.4964 24.1947 27.2261 24.9423 25.9704ZM20.0051 21.579C15.5881 21.579 12.0092 18.0002 12.0092 13.5831C12.0092 9.16943 15.5881 5.59061 20.0051 5.59061C24.4188 5.59061 27.9976 9.16943 27.9976 13.5831C27.9976 18.0002 24.4188 21.579 20.0051 21.579Z" fill="#01B5B4"/>
<path d="M11.6209 25.2313C10.0847 25.2313 9.8794 24.5162 9.8794 24.5162L3.87991 36.3082L8.69045 35.7676L11.3506 39.7707C11.3506 39.7707 16.8933 28.2063 16.8933 28.2832C14.021 28.2114 15.1638 25.3083 11.6209 25.2313Z" fill="#01B5B4"/>
<path d="M30.0454 24.9781C25.6625 25.4366 26.5538 26.5246 25.5513 27.3697C24.3983 28.5997 22.9579 28.3585 22.9579 28.3585L29.7237 40L31.3883 35.689L36.1201 36.3065L30.0454 24.9781Z" fill="#01B5B4"/>
<path d="M21.6748 11.8193L20.0017 8.43213L18.3269 11.8193L14.5822 12.3668L17.2885 15.0064L16.6504 18.7392L20.0017 16.9789L23.353 18.7392L22.7149 15.0064L25.4213 12.3668L21.6748 11.8193Z" fill="#01B5B4"/>
</g>
<defs>
<clipPath id="clip0">
<rect width="40" height="40" fill="white"/>
</clipPath>
</defs>
</svg>
