<svg width="122" height="122" viewBox="0 0 122 122" fill="none" xmlns="http://www.w3.org/2000/svg">
<circle cx="61" cy="61" r="61" fill="#01B5B4"/>
<g clip-path="url(#clip0)">
<path d="M63 47.0001H62V44.0001C62 43.4482 61.5531 43.0002 61.0001 43.0002C60.4471 43.0002 60.0001 43.4482 60.0001 44.0001V48.0001C60.0001 48.552 60.4471 49 61.0001 49H63.0001C63.5531 49 64.0001 48.552 64.0001 48.0001C64.0001 47.4481 63.553 47.0001 63 47.0001Z" fill="white"/>
<path d="M43.0001 73.0001H39.0001C38.4471 73.0001 38.0001 73.4481 38.0001 74.0001V80.0001C38.0001 80.552 38.4471 81 39.0001 81H43C43.553 81 44 80.552 44 80.0001V74.0001C44.0001 73.4481 43.5531 73.0001 43.0001 73.0001ZM42.0001 79.0001H40.0002V75.0002H42.0002V79.0001H42.0001Z" fill="white"/>
<path d="M44.0001 62.0001C44.0001 61.4482 43.5531 61.0002 43.0001 61.0002H39.0001C38.4471 61.0002 38.0001 61.4482 38.0001 62.0001V68.0001C38.0001 68.5521 38.4471 69.0001 39.0001 69.0001H43C43.553 69.0001 44 68.5521 44 68.0001V62.0001H44.0001ZM42.0001 67.0002H40.0002V63.0002H42.0002V67.0002H42.0001Z" fill="white"/>
<path d="M46.0001 56.0001C46.0001 55.4482 45.5532 55.0002 45.0002 55.0002H34.0002V54.0002C34.0002 53.4483 33.5532 53.0002 33.0002 53.0002C32.4472 53.0002 32.0002 53.4483 32.0002 54.0002V88.0001C32.0002 89.654 33.3463 91 35.0002 91H43.0002C44.6542 91 46.0002 89.654 46.0002 88.0001C46.0002 86.3461 44.6542 85.0001 43.0002 85.0001C42.8273 85.0001 42.6552 85.0151 42.4863 85.0451C41.7973 83.8021 40.4822 83 39.0003 83C37.5183 83 36.2033 83.8021 35.5143 85.0451C35.3453 85.0151 35.1733 85.0001 35.0003 85.0001C34.6474 85.0001 34.3143 85.072 34.0004 85.1841V57.0002H45.0004C45.553 57.0002 46.0001 56.5522 46.0001 56.0001ZM35.0001 87.0001C35.1911 87.0001 35.3741 87.0551 35.5421 87.1631C35.8152 87.3401 36.1582 87.3721 36.4601 87.2491C36.7621 87.1271 36.9841 86.8651 37.0592 86.5481C37.2692 85.6371 38.0673 85.0001 39.0002 85.0001C39.9331 85.0001 40.7302 85.6371 40.9411 86.5481C41.0161 86.8651 41.2381 87.1271 41.5402 87.2491C41.8422 87.3722 42.1841 87.3402 42.4583 87.1631C43.1103 86.7431 44.0002 87.2571 44.0002 88.0001C44.0002 88.5511 43.5522 89 43.0002 89H35.0001C34.4482 89 34.0002 88.5511 34.0002 88.0001C34.0002 87.449 34.4482 87.0001 35.0001 87.0001Z" fill="white"/>
<path d="M74.9999 87H49.0001C48.4471 87 48.0001 87.448 48.0001 88V90C48.0001 90.552 48.4471 91 49.0001 91C49.5531 91 50 90.552 50 90V89H73.9999V90C73.9999 90.552 74.4469 91 74.9999 91C75.5529 91 75.9999 90.552 75.9999 90V88C76 87.448 75.5529 87 74.9999 87Z" fill="white"/>
<path d="M49.0001 85C49.5531 85 50 84.552 50 84V45.0002C50 44.4483 49.5531 44.0002 49.0001 44.0002C48.4471 44.0002 48.0001 44.4483 48.0001 45.0002V84C48 84.552 48.4471 85 49.0001 85Z" fill="white"/>
<path d="M74.9999 43.0002C74.4469 43.0002 73.9999 43.4482 73.9999 44.0001V83.9999C73.9999 84.5519 74.4469 84.9999 74.9999 84.9999C75.5529 84.9999 75.9999 84.5519 75.9999 83.9999V44.0001C76 43.4482 75.5529 43.0002 74.9999 43.0002Z" fill="white"/>
<path d="M90.9999 53.0001C90.4469 53.0001 90 53.4481 90 54.0001V55H79C78.447 55 78 55.448 78 56C78 56.5519 78.447 57 79 57H90V85.1838C89.685 85.0718 89.3519 84.9998 89 84.9998C88.8271 84.9998 88.655 85.0148 88.486 85.0448C87.7971 83.8018 86.482 82.9998 85.0001 82.9998C83.5181 82.9998 82.203 83.8018 81.5141 85.0448C81.3451 85.0148 81.1731 84.9998 81.0001 84.9998C79.3461 84.9998 78.0001 86.3458 78.0001 87.9998C78.0001 89.6538 79.3461 90.9998 81.0001 90.9998H89.0001C90.6541 90.9998 92.0001 89.6538 92.0001 87.9998V54.0002C91.9999 53.4481 91.5529 53.0001 90.9999 53.0001ZM88.9999 89H80.9999C80.4479 89 79.9999 88.551 79.9999 88C79.9999 87.449 80.4479 87.0001 80.9999 87.0001C81.1909 87.0001 81.3738 87.055 81.5419 87.1631C81.8159 87.34 82.1579 87.372 82.4599 87.2491C82.7619 87.1271 82.9839 86.8651 83.0589 86.5481C83.2689 85.6371 84.0669 85 84.9998 85C85.9329 85 86.7299 85.6371 86.9408 86.5481C87.0158 86.8651 87.2378 87.1271 87.5397 87.2491C87.8417 87.3721 88.1837 87.3401 88.4578 87.1631C89.1108 86.7431 89.9997 87.2571 89.9997 88C89.9999 88.551 89.5519 89 88.9999 89Z" fill="white"/>
<path d="M77.515 40.1432L62.5151 31.1432C62.1981 30.9522 61.8021 30.9522 61.4851 31.1432L46.4852 40.1432C46.0122 40.4271 45.8582 41.0412 46.1432 41.5152C46.4272 41.9882 47.0402 42.1421 47.5153 41.8571L62.0002 33.1662L76.4851 41.8571C76.6461 41.9542 76.8241 42.0001 76.9991 42.0001C77.339 42.0001 77.6701 41.8271 77.8571 41.5151C78.142 41.0412 77.988 40.4272 77.515 40.1432Z" fill="white"/>
<path d="M79.9999 80.0001C79.9999 80.552 80.4469 81 80.9999 81H84.9998C85.5528 81 85.9998 80.552 85.9998 80.0001V74.0001C85.9998 73.4481 85.5528 73.0001 84.9998 73.0001H80.9999C80.4469 73.0001 79.9999 73.4481 79.9999 74.0001V80.0001ZM82 75.0002H84V79.0001H82V75.0002Z" fill="white"/>
<path d="M80.9999 69.0002H84.9998C85.5528 69.0002 85.9998 68.5522 85.9998 68.0002V62.0003C85.9998 61.4483 85.5528 61.0003 84.9998 61.0003H80.9999C80.4469 61.0003 79.9999 61.4483 79.9999 62.0003V68.0002C79.9999 68.5522 80.4469 69.0002 80.9999 69.0002ZM82 63.0002H84V67.0002H82V63.0002Z" fill="white"/>
<path d="M61.2899 79.2901C61.1089 79.48 60.9999 79.7301 60.9999 80.0001C60.9999 80.2601 61.1089 80.5201 61.2899 80.7101C61.4789 80.8901 61.7289 81.0002 62 81.0002C62.26 81.0002 62.519 80.8901 62.71 80.7101C62.89 80.5202 63 80.2601 63 80.0001C63 79.7301 62.89 79.4801 62.71 79.2901C62.3399 78.92 61.649 78.92 61.2899 79.2901Z" fill="white"/>
<path d="M54 68.0001C54 68.5521 54.447 69.0001 55 69.0001H58.9999C59.5529 69.0001 59.9999 68.5521 59.9999 68.0001V62.0001C59.9999 61.4482 59.5529 61.0002 58.9999 61.0002H55C54.447 61.0002 54 61.4482 54 62.0001V68.0001ZM56 63.0002H58.0001V67.0002H56V63.0002Z" fill="white"/>
<path d="M65 61.0002C64.447 61.0002 64.0001 61.4482 64.0001 62.0001V68.0001C64.0001 68.5521 64.447 69.0001 65 69.0001H69C69.553 69.0001 69.9999 68.5521 69.9999 68.0001V62.0001C69.9999 61.4482 69.553 61.0002 69 61.0002H65ZM68 67.0002H66V63.0002H68V67.0002Z" fill="white"/>
<path d="M62 39.0002C57.589 39.0002 54 42.5892 54 47.0002C54 51.4112 57.589 55.0002 62 55.0002C66.411 55.0002 70 51.4112 70 47.0002C70 42.5892 66.411 39.0002 62 39.0002ZM62 53.0001C58.691 53.0001 56 50.3091 56 47.0001C56 43.6911 58.691 41.0001 62 41.0001C65.309 41.0001 68 43.6911 68 47.0001C68 50.3091 65.309 53.0001 62 53.0001Z" fill="white"/>
<path d="M52.0001 74.0001C52.0001 74.552 52.447 75 53 75H56V84C56 84.5519 56.447 85 57 85C57.553 85 57.9999 84.5519 57.9999 84V75H65.9999V84C65.9999 84.5519 66.4469 85 66.9999 85C67.5529 85 67.9998 84.5519 67.9998 84V75H70.9998C71.5528 75 71.9998 74.552 71.9998 74.0001C71.9998 73.4481 71.5528 73.0001 70.9998 73.0001H52.9999C52.447 73.0001 52.0001 73.4481 52.0001 74.0001Z" fill="white"/>
</g>
<defs>
<clipPath id="clip0">
<rect width="60" height="60" fill="white" transform="translate(32 31)"/>
</clipPath>
</defs>
</svg>
