<svg width="122" height="122" viewBox="0 0 122 122" fill="none" xmlns="http://www.w3.org/2000/svg">
<circle cx="61" cy="61" r="61" fill="#01B5B4"/>
<path d="M58.2461 69.5547H56.3711V71.3125H58.2461V69.5547Z" fill="white"/>
<path d="M61.9961 69.5547H60.1211V71.3125H61.9961V69.5547Z" fill="white"/>
<path d="M65.7461 69.5547H63.8711V71.3125H65.7461V69.5547Z" fill="white"/>
<path d="M90.9414 75.0625V69.5547H77.8164V67.5625H80.6289V62.0547H71.2539V57.25H74.0664V51.7422H71.2744C70.8518 46.7031 66.918 42.7693 61.8789 42.3467V39.4375H69.3789V32.0547H61.8789V31H60.1211V42.3467C55.1992 42.7693 51.2654 46.7031 50.8428 51.7422H47.9336V57.25H50.7461V62.0547H41.3711V67.5625H44.1836V69.5547H31.0586V75.0625H32.9336V85.4922H31.0586V91H90.9414V85.4922H89.0664V75.0625H90.9414ZM89.1836 71.3125V73.3047H77.8164V71.3125H89.1836ZM81.5664 85.4922V75.0625H83.5586V85.4922H81.5664ZM77.8164 75.0625H79.8086V85.4922H77.8164V75.0625ZM69.4961 62.0547H67.5039V57.25H69.4961V62.0547ZM58.2461 57.25V62.0547H56.2539V57.25H58.2461ZM60.0039 57.25H61.9961V62.0547H60.0039V57.25ZM63.7539 57.25H65.7461V62.0547H63.7539V57.25ZM67.6211 33.8125V37.6797H61.8789V33.8125H67.6211ZM61.0586 44.125C65.4466 44.125 69.068 47.4062 69.5092 51.7422H52.6079C53.0492 47.4062 56.6706 44.125 61.0586 44.125ZM49.6914 53.5H72.3086V55.4922H49.6914V53.5ZM52.5039 57.25H54.4961V62.0547H52.5039V57.25ZM43.1289 63.8125H78.8711V65.8047H43.1289V63.8125ZM76.0586 67.5625V85.4922H68.4414V78.8125H71.2539V73.3047H50.7461V78.8125H53.5586V85.4922H45.9414V67.5625H76.0586ZM52.5039 77.0547V75.0625H69.4961V77.0547H52.5039ZM57.3086 78.8125V85.4922H55.3164V78.8125H57.3086ZM59.0664 78.8125H62.9336V85.4922H59.0664V78.8125ZM64.6914 78.8125H66.6836V85.4922H64.6914V78.8125ZM40.4336 75.0625V83.5H42.1914V75.0625H44.1836V85.4922H38.4414V75.0625H40.4336ZM32.8164 71.3125H44.1836V73.3047H32.8164V71.3125ZM34.6914 75.0625H36.6836V85.4922H34.6914V75.0625ZM89.1836 89.2422H32.8164V87.25H89.1836V89.2422ZM87.3086 85.4922H85.3164V75.0625H87.3086V85.4922Z" fill="white"/>
</svg>
