<svg width="197" height="154" viewBox="0 0 197 154" fill="none" xmlns="http://www.w3.org/2000/svg">
<path d="M76.97 46.6933L56.2473 82.7561L76.97 46.6933Z" fill="url(#paint0_linear)"/>
<path d="M56.2473 123.529L44.4057 103.075L56.2473 82.7561L76.97 46.6933L100.518 4.306H124.202L56.2473 123.529Z" fill="url(#paint1_linear)"/>
<path d="M64.3211 46.6933H35.39L56.2473 82.7561L44.4057 103.075L0 26.2397H76.1626L64.3211 46.6933Z" fill="url(#paint2_linear)"/>
<path d="M120.03 81.1413L140.887 45.2131L120.03 81.1413Z" fill="url(#paint3_linear)"/>
<path d="M140.887 4.306L152.594 24.7595L140.887 45.2131L120.03 81.1414L96.4816 123.529H72.9331L140.887 4.306Z" fill="url(#paint4_linear)"/>
<path d="M132.679 81.1414H161.61L140.887 45.2131L152.594 24.7596L197 101.595H120.837L132.679 81.1414Z" fill="url(#paint5_linear)"/>
<path d="M8.20834 2.5567H1.48019V0.403687H17.3586V2.5567H10.6305V19.6462H8.34291V2.5567H8.20834Z" fill="white"/>
<path d="M23.6831 9.95764C23.6831 7.13182 24.625 4.84425 26.5089 2.82581C28.3928 0.941928 30.6803 0 33.6407 0C36.4665 0 38.8887 0.941928 40.638 2.82581C42.5219 4.70969 43.4638 7.13182 43.4638 9.95764C43.4638 12.7835 42.5219 15.2056 40.5034 17.0895L42.6564 19.6462H39.8306L38.7541 18.4351C37.1393 19.377 35.39 19.9153 33.5062 19.9153C30.6803 19.9153 28.2582 18.9734 26.3743 17.0895C24.625 15.3402 23.6831 12.918 23.6831 9.95764ZM26.1052 9.95764C26.1052 12.1106 26.778 13.9945 28.2582 15.4747C29.7384 16.9549 31.4877 17.6277 33.5062 17.6277C34.9863 17.6277 36.1974 17.3586 37.2739 16.6858L35.5246 14.6673L37.1393 13.3217L38.8887 15.3402C40.2343 13.86 40.7725 12.1106 40.7725 9.95764C40.7725 7.80464 40.0997 5.92075 38.6195 4.44056C37.1394 2.96037 35.39 2.28756 33.3716 2.28756C31.2186 2.28756 29.4693 2.96037 28.1236 4.44056C26.9126 5.92075 26.1052 7.80464 26.1052 9.95764Z" fill="white"/>
<path d="M55.5745 19.6461H53.2869V0.269104H55.709L62.9754 10.2267L69.9727 0.269104H72.2603V19.6461H69.9727V4.03687L63.11 13.7254H62.7063L55.709 4.17142V19.6461H55.5745Z" fill="white"/>
<path d="M126.355 123.394H119.896V112.898H121.107V122.183H126.22V123.394H126.355Z" fill="white"/>
<path d="M132.679 123.394H131.468V112.898H132.679V123.394Z" fill="white"/>
<path d="M140.349 123.394H139.138V112.898H140.484L144.386 118.281L148.154 112.898H149.365V123.394H148.154V114.917L144.386 120.165H144.251L140.484 115.051V123.394H140.349Z" fill="white"/>
<path d="M157.035 123.394H155.824V112.898H157.035V123.394Z" fill="white"/>
<path d="M165.647 114.109H162.014V112.898H170.626V114.109H166.992V123.394H165.781V114.109H165.647Z" fill="white"/>
<path d="M181.256 123.394H175.201V112.898H181.122V114.109H176.546V117.473H180.718V118.684H176.546V122.183H181.391V123.394H181.256Z" fill="white"/>
<path d="M187.042 123.394H186.908V112.898H187.042C187.446 112.898 187.85 112.898 188.253 112.898C189.061 112.898 189.599 112.898 189.599 112.898C190.676 112.898 191.483 113.033 192.29 113.302C193.098 113.571 193.636 113.975 194.174 114.378C194.578 114.917 194.982 115.455 195.251 115.993C195.52 116.531 195.654 117.204 195.654 118.012C195.654 119.626 195.116 120.837 194.04 121.914C192.963 122.99 191.483 123.394 189.599 123.394C189.195 123.394 188.792 123.394 188.388 123.394C187.984 123.394 187.581 123.394 187.042 123.394ZM189.599 114.109C189.464 114.109 189.195 114.109 188.792 114.109C188.388 114.109 188.119 114.109 188.119 114.109V122.183C188.388 122.183 188.657 122.183 188.926 122.183C189.195 122.183 189.33 122.183 189.465 122.183C189.599 122.183 189.599 122.183 189.734 122.183C191.214 122.183 192.29 121.779 193.098 120.972C193.905 120.165 194.309 119.223 194.309 117.877C194.309 116.666 193.905 115.724 193.098 115.051C192.29 114.378 191.079 114.109 189.599 114.109Z" fill="white"/>
<defs>
<linearGradient id="paint0_linear" x1="56.1935" y1="64.7177" x2="76.9639" y2="64.7177" gradientUnits="userSpaceOnUse">
<stop stop-color="#31F1D4"/>
<stop offset="0.1351" stop-color="#2DE6CD"/>
<stop offset="0.374" stop-color="#23C8BC"/>
<stop offset="0.687" stop-color="#13989F"/>
<stop offset="1" stop-color="#00617F"/>
</linearGradient>
<linearGradient id="paint1_linear" x1="44.3979" y1="63.9331" x2="124.146" y2="63.9331" gradientUnits="userSpaceOnUse">
<stop stop-color="#31F1D4"/>
<stop offset="0.1351" stop-color="#2DE6CD"/>
<stop offset="0.374" stop-color="#23C8BC"/>
<stop offset="0.687" stop-color="#13989F"/>
<stop offset="1" stop-color="#00617F"/>
</linearGradient>
<linearGradient id="paint2_linear" x1="0.0367357" y1="64.7176" x2="76.1758" y2="64.7176" gradientUnits="userSpaceOnUse">
<stop stop-color="#31F1D4"/>
<stop offset="0.1351" stop-color="#2DE6CD"/>
<stop offset="0.374" stop-color="#23C8BC"/>
<stop offset="0.687" stop-color="#13989F"/>
<stop offset="1" stop-color="#00617F"/>
</linearGradient>
<linearGradient id="paint3_linear" x1="140.854" y1="63.1484" x2="120.083" y2="63.1484" gradientUnits="userSpaceOnUse">
<stop stop-color="#31F1D4"/>
<stop offset="0.1351" stop-color="#2DE6CD"/>
<stop offset="0.374" stop-color="#23C8BC"/>
<stop offset="0.687" stop-color="#13989F"/>
<stop offset="1" stop-color="#00617F"/>
</linearGradient>
<linearGradient id="paint4_linear" x1="152.649" y1="63.9331" x2="72.9016" y2="63.9331" gradientUnits="userSpaceOnUse">
<stop stop-color="#31F1D4"/>
<stop offset="0.1351" stop-color="#2DE6CD"/>
<stop offset="0.374" stop-color="#23C8BC"/>
<stop offset="0.687" stop-color="#13989F"/>
<stop offset="1" stop-color="#00617F"/>
</linearGradient>
<linearGradient id="paint5_linear" x1="197.011" y1="63.1485" x2="120.872" y2="63.1485" gradientUnits="userSpaceOnUse">
<stop stop-color="#31F1D4"/>
<stop offset="0.1351" stop-color="#2DE6CD"/>
<stop offset="0.374" stop-color="#23C8BC"/>
<stop offset="0.687" stop-color="#13989F"/>
<stop offset="1" stop-color="#00617F"/>
</linearGradient>
</defs>
</svg>
