<svg width="670" height="579" viewBox="0 0 670 579" fill="none" xmlns="http://www.w3.org/2000/svg">
<path d="M-833.399 526.582L-840.152 526.712V518.657L-833.399 518.916L-833.529 512.42L-827.166 512.29V496.05L-823.141 495.79L-822.881 491.243L-812.232 488.904L-812.622 484.486L-818.595 484.616L-818.725 481.628L-822.751 480.329L-823.66 476.561L-827.426 475.522L-824.439 447.978C-824.439 447.978 -838.074 432.517 -837.555 432.517C-837.036 432.517 -829.374 422.903 -829.374 422.903L-821.712 428.879L-813.401 413.158H-805.999L-800.674 406.272L-804.96 401.595L-805.479 394.579L-813.401 393.54L-806.129 391.461L-813.401 387.303L-803.921 387.044L-809.375 380.937L-800.545 385.225L-799.766 377.429L-796 384.835L-793.532 384.705L-788.208 380.547L-790.805 387.953L-785.221 387.173V381.717L-783.922 381.067L-783.403 361.189L-779.897 356.511L-780.027 355.472L-786.39 355.342V349.755L-784.832 347.807L-780.156 347.547L-779.637 345.988L-784.702 345.338V340.401L-783.014 337.802L-782.884 335.594L-781.066 333.515L-783.663 328.058V324.16L-772.884 337.802V343.389L-774.702 345.468L-775.222 346.767H-773.404L-771.586 349.106V355.082L-774.443 356.641V363.527H-777.949V370.543L-772.235 395.878V405.883L-775.482 408.481V419.525L-778.208 425.241L-775.352 440.442V446.289H-778.468L-778.988 449.147L-778.598 461.23H-781.066L-781.195 474.482L-778.598 483.967V511.771L-773.274 511.641V519.046L-765.742 518.916L-767.43 527.751H-773.793L-766.651 540.744C-766.651 540.744 -763.275 517.357 -735.744 502.806C-733.277 501.507 -730.679 500.337 -728.212 499.298C-715.616 484.357 -691.851 487.085 -691.851 487.085V475.132L-686.916 476.561C-685.488 471.494 -682.761 468.766 -680.294 467.337V383.665H-649.386V445.379H-647.309V471.234L-646.14 472.404H-637.829V233.863L-598.481 233.343V425.371C-594.585 425.891 -591.079 427.19 -588.222 428.619V254.001L-559.263 226.068L-524.59 253.612L-524.98 403.544C-519.785 402.894 -515.24 403.674 -511.344 404.973V122.129L-491.995 121.869L-491.606 117.971L-506.799 118.101L-511.344 116.022V112.774L-507.708 109.916L-491.346 109.656L-488.489 0L-485.632 109.656H-468.36L-464.724 112.254L-465.114 116.152L-469.14 118.101H-485.762V121.219H-463.426V393.15L-455.245 386.394L-441.869 400.945V418.745H-437.713V460.71H-433.558V479.419H-424.597V381.457H-415.118V351.444H-396.937V381.457H-394.599V408.481H-366.29V412.898C-362.394 412.898 -359.927 412.768 -359.927 412.768V414.328H-357.459V394.449H-352.265V385.095H-316.423V430.958H-303.307V467.856H-296.814V461.23H-285.776V456.813H-280.582V450.576H-274.089V467.986H-269.673V435.635L-260.453 381.587L-251.233 435.635V466.297L-248.116 467.077V369.894H-200.198V389.512H-193.315V428.749H-191.237L-187.731 412.898L-183.316 428.749H-171.239C-171.239 412.898 -171.239 392.63 -171.239 392.63H-162.149V400.166H-136.176V394.449H-123.84V402.634H-114.749V396.398H-105.01V429.139C-100.205 429.269 -94.8806 429.399 -93.582 429.009C-94.3612 431.478 -93.3223 448.887 -93.3223 448.887H-86.0501V470.195H-80.2063V436.285L-73.5834 424.202L-66.8307 438.753V462.919H-61.8959V373.791H-27.353V388.083H-23.587V418.745H-11.2502V375.48H10.6963V340.791H38.6163V357.941H65.6274V425.761H68.2247V453.565L70.692 456.033V242.958H75.7566V207.878H80.8212V193.067H85.8857V187.22H91.4698V179.295L96.1448 180.205V176.177L98.8718 175.787C98.8718 175.787 99.1316 141.617 98.8718 135.381C98.6121 128.365 106.274 127.715 106.274 127.715V109.656H108.611V127.455C117.572 127.715 117.961 134.471 117.961 134.471V179.295H124.974V186.441H130.558V193.587L136.142 193.977V206.579L140.297 206.969V242.438H143.025V421.084L147.31 424.462V428.099C147.57 428.099 147.7 428.099 147.7 428.099V438.363H153.803V337.802H182.243V446.029H183.411L196.787 433.167V356.771V345.468H205.228V337.802H227.564V287.002H247.303V391.851H265.743V303.243H289.637V438.493H296.001V430.308L305.87 430.698V419.265H306.389V411.989H315.48V405.753H318.337V345.858H351.321V400.815H357.814V345.858H387.423V391.331H396.773V410.04L400.149 408.221L404.305 412.898V420.304L408.46 421.084V461.36H415.083V333.645L417.94 330.916V316.885L423.654 311.428V279.207L431.575 271.801V261.797L432.744 260.368V252.053L434.822 250.234V239.58L437.939 238.93V228.276L439.107 227.367V220.611L440.925 219.182V213.075L443.393 208.008L443.523 160.196V161.106L444.691 208.138H446.25V216.973L450.665 226.068V233.863L455.34 238.41V248.415H458.457V259.198L460.664 261.407V270.112L462.352 271.801V280.896H464.171V312.207H468.716V320.263H474.04V455.643H480.403V448.368H484.039V381.327H543.775V466.167C548.45 466.427 552.995 466.427 552.995 465.258C552.995 465.777 552.995 471.104 552.995 477.99L555.593 480.459V438.363H572.604V482.278H581.045V427.71H620.783V502.286H630.912V463.829H651.695V514.849C651.695 514.849 659.651 526.73 663.11 535.139C667.518 545.854 670 564 670 564L-855.995 563.091C-856.385 533.988 -833.399 526.582 -833.399 526.582Z" fill="#629CA5"/>
<g clip-path="url(#clip0)">
<path fill-rule="evenodd" clip-rule="evenodd" d="M377.328 286.688C384.967 289.892 376.466 294.082 378.93 297.779C381.394 301.599 375.973 304.31 377.328 309.486C378.683 314.662 390.387 314.416 396.055 313.799C401.722 313.307 393.591 276.09 377.328 286.688Z" fill="#1A1A1A"/>
<path fill-rule="evenodd" clip-rule="evenodd" d="M368.828 253.538C378.191 240.721 402.584 245.897 402.338 262.657C402.091 279.294 412.44 268.696 408.99 277.076C405.541 285.456 416.382 284.47 411.824 291.371C407.266 298.272 418.354 299.751 407.758 307.761C397.163 315.771 391.003 313.307 391.003 313.307C391.003 313.307 394.33 266.601 374.987 272.146C369.197 273.625 364.269 259.823 368.828 253.538Z" fill="#1A1A1A"/>
<path fill-rule="evenodd" clip-rule="evenodd" d="M382.749 246.391C389.402 246.391 395.315 249.595 398.272 256.743C401.229 263.89 401.722 272.024 400.736 276.091C399.874 279.665 403.077 289.893 404.555 293.344C406.28 297.657 409.114 303.818 409.114 303.818C409.114 303.818 412.07 308.255 412.07 314.417C412.07 320.578 411.824 329.451 414.042 340.666C416.259 352.003 416.013 354.468 414.042 360.013C412.07 365.682 405.664 376.527 405.664 376.527C405.664 376.527 411.824 379.484 409.606 382.196C407.389 384.907 405.418 385.893 405.418 385.893C405.418 385.893 412.07 395.505 408.621 405.733C405.171 416.085 404.555 423.602 404.925 433.091C405.294 442.58 405.294 450.837 405.294 450.837L401.352 451.577C401.352 451.577 401.352 460.203 405.294 465.749C409.237 471.294 415.52 480.29 416.752 494.832C417.984 509.373 421.064 521.943 425.376 525.517C429.688 529.091 434.123 528.721 434.123 534.637C434.123 540.552 433.014 547.453 433.014 550.411C433.014 553.368 433.014 557.558 433.014 557.558L431.166 558.051C431.166 558.051 431.659 554.601 431.166 550.657C430.674 546.714 429.565 541.538 426.978 543.14C424.514 544.742 420.571 552.136 418.723 555.586C416.875 559.037 413.179 562.241 405.91 560.146C398.519 558.051 396.055 553.245 399.997 552.136C403.939 551.027 408.744 552.875 409.606 548.685C410.469 544.495 412.07 534.02 410.469 528.475C408.867 522.929 403.077 505.8 400.859 499.392C398.519 492.983 395.315 485.343 395.315 485.343C395.315 485.343 395.562 495.448 393.467 500.254C391.373 505.06 384.351 523.669 382.872 527.612C381.517 531.556 383.981 534.02 386.075 536.115C388.17 538.21 386.938 543.263 385.336 547.083C383.735 551.027 382.995 555.833 382.995 557.928C382.995 560.023 382.995 564.336 382.995 564.336H380.039C380.039 564.336 380.901 559.53 380.901 555.586C380.901 551.643 381.64 548.932 380.162 548.192C378.807 547.453 372.647 552.998 370.06 556.942C367.596 560.885 367.103 566.308 358.848 564.336C350.594 562.241 345.05 557.928 347.144 555.34C349.239 552.875 353.304 554.847 355.892 553.491C358.356 552.136 363.284 539.936 366.24 532.665C369.197 525.271 372.647 510.236 373.632 501.24C374.495 492.244 375.973 485.466 376.096 482.385C376.343 479.428 376.343 473.882 376.343 473.882C376.343 473.882 373.632 463.53 372.647 459.217C371.784 454.904 371.784 451.7 371.784 451.7C371.784 451.7 366.98 452.562 366.98 449.605C366.98 446.647 368.581 433.954 368.088 428.039C367.596 422.124 365.624 422.493 365.624 422.493C365.624 422.493 365.132 425.697 365.132 428.285C365.132 430.75 363.284 430.134 362.668 428.285C361.928 426.437 359.464 428.285 359.464 426.437C359.464 424.588 358.356 420.645 358.725 417.687C359.218 414.729 361.189 409.184 361.189 409.184L340.492 408.444L343.202 366.545L362.421 366.791C362.421 366.791 363.407 353.605 363.407 347.32C363.407 341.035 362.668 332.655 366.98 325.508C371.291 318.36 376.835 312.568 380.408 308.008C383.981 303.449 384.474 303.202 383.488 299.136C382.503 295.069 382.503 290.016 379.915 290.263C377.328 290.509 375.111 290.263 373.879 286.935C372.647 283.608 369.567 277.57 369.32 273.256C369.074 268.943 370.06 268.327 369.444 266.971C368.828 265.616 369.69 261.426 369.813 257.975C370.06 254.525 374.495 246.391 382.749 246.391Z" fill="#232323"/>
<path fill-rule="evenodd" clip-rule="evenodd" d="M402.338 287.181C402.707 288.29 403.077 289.522 403.323 290.508C393.467 290.015 387.923 297.533 383.858 303.201C385.336 300.737 385.213 296.793 385.09 294.945C387.554 292.603 391.127 290.138 394.33 288.783C397.163 287.674 400.243 287.304 402.338 287.181Z" fill="white"/>
<path fill-rule="evenodd" clip-rule="evenodd" d="M268.42 289.892C274.087 291.617 278.276 293.096 278.523 300.737C278.769 309.24 279.508 325.876 280.74 336.968C281.972 348.059 285.175 371.843 285.422 379.36C285.668 386.878 286.407 402.898 286.161 404.623C285.915 406.349 284.559 406.225 285.175 409.183C285.791 412.141 285.791 414.975 284.19 416.947C282.588 418.918 283.451 421.506 283.451 421.506L297.249 420.89L296.263 475.73L274.457 492.489C274.457 492.489 271.377 490.271 268.297 489.902V423.108L270.761 422.739C270.761 422.739 270.268 418.918 271.007 416.331C271.747 413.743 271.5 411.401 271.007 408.567C271.007 408.567 270.145 411.278 268.297 411.648V289.892H268.42ZM237.744 230C243.904 230 250.926 234.436 251.788 240.845C252.651 247.253 252.158 256.126 252.158 256.126C252.158 256.126 254.252 260.316 252.528 263.766C250.803 267.217 246.86 266.477 246.86 266.477C246.86 266.477 245.752 271.777 245.752 274.734C245.752 277.692 245.998 279.664 248.339 281.512C250.68 283.484 259.303 287.058 266.203 289.153C266.942 289.399 267.681 289.646 268.42 289.769V411.524C268.297 411.524 268.174 411.524 268.051 411.524C265.956 411.524 265.217 411.771 265.217 411.771C265.217 411.771 265.956 414.852 265.956 417.686C265.956 420.521 265.71 423.355 265.71 423.355L268.42 422.985V489.778C268.174 489.778 268.051 489.778 267.804 489.778C264.601 489.778 262.999 490.025 262.999 490.025C262.999 490.025 263.862 506.292 263.862 512.7C263.862 519.108 263.246 529.337 260.412 534.019C257.579 538.702 257.209 540.304 257.209 544.371C257.209 548.561 263.246 559.652 263.123 563.473C262.876 567.293 262.014 573.085 255.731 572.962C249.448 572.715 244.766 570.374 244.766 565.198C244.766 560.145 245.505 556.941 243.411 554.969C241.316 553.121 244.52 548.561 240.947 543.632C237.374 538.702 241.316 538.209 240.331 533.65C239.345 529.09 241.07 515.288 241.44 509.866C241.809 504.443 240.824 497.912 237.99 474.497C235.156 451.083 233.432 440.854 232.692 435.802C231.953 430.749 230.598 424.218 230.598 424.218C230.598 424.218 227.272 446.277 224.192 451.822C221.112 457.244 217.909 484.479 217.046 492.489C216.061 500.376 216.677 523.791 214.829 526.256C212.981 528.72 211.995 532.171 211.995 532.171C211.995 532.171 216.923 535.005 216.923 538.949C216.923 542.892 213.35 546.096 213.473 551.272C213.72 556.325 213.104 560.761 211.009 561.87C208.915 562.98 209.285 571.729 206.697 574.687C204.11 577.768 199.675 580.109 194.378 578.63C189.08 577.151 189.08 570.127 191.79 563.473C194.378 556.818 197.704 552.381 196.718 549.67C195.733 547.082 194.87 543.016 197.457 540.428C200.045 537.84 197.211 535.005 195.609 532.664C193.885 530.446 194.254 519.848 194.131 514.179C193.885 508.51 194.747 480.166 194.378 469.814C194.008 459.463 193.022 428.284 194.624 419.535C196.102 410.785 194.87 404.377 194.87 404.377C194.87 404.377 191.421 406.102 191.421 402.898C191.421 399.694 192.776 399.078 191.174 393.409C189.696 387.74 189.326 382.441 187.602 378.128C185.877 373.815 185.507 366.421 187.602 364.202C189.696 361.984 186.616 349.414 188.587 340.048C190.435 330.559 191.79 315.525 192.037 307.391C192.283 299.258 192.653 293.466 203.125 290.755C213.72 288.167 221.481 285.086 222.96 282.868C224.438 280.649 225.054 274.734 224.685 272.146C224.315 269.558 224.069 267.463 224.069 265.861C224.069 264.382 220.989 266.601 220.249 263.766C219.51 260.932 219.017 254.77 219.51 254.277C220.003 253.784 220.496 253.784 221.112 253.908C220.989 252.922 220.742 247.253 221.112 240.968C221.481 235.299 227.272 230.37 237.744 230Z" fill="#232323"/>
<path fill-rule="evenodd" clip-rule="evenodd" d="M193.145 399.324C193.145 399.324 190.312 394.888 193.145 391.191C195.979 387.617 202.385 390.328 202.385 390.328C202.385 390.328 197.95 390.328 195.363 392.3C192.776 394.272 193.638 395.627 193.145 399.324Z" fill="white"/>
<path fill-rule="evenodd" clip-rule="evenodd" d="M271.131 407.704C271.131 407.704 271.131 402.898 277.537 402.898C283.943 402.898 285.052 407.951 285.052 407.951C285.052 407.951 281.603 405.363 277.291 405.486C273.102 405.609 272.979 405.609 271.131 407.704Z" fill="white"/>
<path fill-rule="evenodd" clip-rule="evenodd" d="M246.121 278.185C246.368 279.171 246.86 280.033 247.6 280.773C246.368 287.797 243.411 308.624 242.302 324.028C241.07 341.65 244.273 375.663 244.273 375.663C244.273 375.663 241.932 376.033 233.925 376.033C225.917 376.033 210.27 371.103 210.27 371.103C210.27 371.103 212.857 366.421 214.952 360.136C217.046 353.851 220.989 326.862 222.097 304.064C222.59 292.48 222.713 286.688 221.974 283.484C222.344 283.237 222.59 282.868 222.713 282.621C223.206 281.882 223.576 280.773 223.945 279.417C226.409 284.346 232.2 289.029 235.773 289.029C239.222 289.029 244.027 282.128 246.121 278.185Z" fill="white"/>
<path fill-rule="evenodd" clip-rule="evenodd" d="M227.395 294.452C227.395 294.452 230.228 290.138 234.91 290.138C239.591 290.138 242.671 294.452 242.671 294.452C242.671 294.452 237.497 293.343 237.744 296.793C237.99 300.244 239.715 318.236 239.715 330.066C239.715 341.897 240.577 372.582 239.345 378.374C238.113 384.166 233.924 386.385 233.062 378.744C232.2 371.227 232.446 330.806 232.692 323.042C232.939 315.278 234.171 299.011 233.308 296.793C232.323 294.821 229.982 293.096 227.395 294.452Z" fill="#232323"/>
</g>
<defs>
<clipPath id="clip0">
<rect width="248" height="349" fill="white" transform="translate(186 230)"/>
</clipPath>
</defs>
</svg>
