<svg width="120" height="15" viewBox="0 0 120 15" fill="none" xmlns="http://www.w3.org/2000/svg">
<path fill-rule="evenodd" clip-rule="evenodd" d="M35.7786 14.062H37.2393C37.2393 14.062 37.6801 14.0161 37.9053 13.7859C38.1132 13.5737 38.1063 13.1764 38.1063 13.1764C38.1063 13.1764 38.0779 11.3161 38.9872 11.0416C39.8836 10.7713 41.0354 12.8397 42.2553 13.6352C43.1785 14.2373 43.8799 14.1054 43.8799 14.1054L47.1429 14.062C47.1429 14.062 48.8494 13.962 48.0401 12.6882C47.9737 12.5842 47.5682 11.7453 45.6141 10.0226C43.5676 8.21956 43.842 8.51118 46.3069 5.39174C47.8072 3.49287 48.4077 2.33291 48.2196 1.83649C48.041 1.363 46.9375 1.48834 46.9375 1.48834L43.263 1.50964C43.263 1.50964 42.9904 1.47441 42.7885 1.5891C42.5918 1.70132 42.465 1.96346 42.465 1.96346C42.465 1.96346 41.8826 3.43307 41.1079 4.68315C39.4721 7.32091 38.8172 7.46017 38.5498 7.29634C37.9277 6.9146 38.083 5.76365 38.083 4.94528C38.083 2.38862 38.492 1.32286 37.2884 1.0468C36.889 0.955868 36.5948 0.895249 35.5733 0.885418C34.2627 0.872312 33.1532 0.888695 32.5252 1.18114C32.1067 1.37529 31.784 1.80864 31.9808 1.83321C32.2232 1.86434 32.7736 1.97411 33.0652 2.35094C33.4414 2.83753 33.4285 3.9295 33.4285 3.9295C33.4285 3.9295 33.645 6.93835 32.9229 7.31272C32.4277 7.56831 31.7487 7.04567 30.2897 4.65202C29.5426 3.42652 28.9784 2.07159 28.9784 2.07159C28.9784 2.07159 28.8696 1.81847 28.6755 1.68248C28.44 1.51865 28.1113 1.46622 28.1113 1.46622L24.6197 1.48834C24.6197 1.48834 24.096 1.50226 23.9036 1.71853C23.7319 1.91103 23.8898 2.30916 23.8898 2.30916C23.8898 2.30916 26.623 8.38093 29.7177 11.4406C32.5562 14.2463 35.7786 14.062 35.7786 14.062Z" fill="#AEAEAE"/>
<path fill-rule="evenodd" clip-rule="evenodd" d="M5.32318 2.58021C5.59915 2.58021 7.0189 2.58021 7.0189 2.58021V0.00927716L4.68318 0C2.08911 0 1.4996 1.91921 1.4996 3.1438V4.85775H0V7.50522H1.4996C1.4996 10.9053 1.4996 15 1.4996 15H4.65382C4.65382 15 4.65382 10.8659 4.65382 7.50522H6.78286L7.05882 4.85775H4.65382V3.30151C4.65382 2.71705 5.04722 2.58021 5.32318 2.58021Z" fill="#AEAEAE"/>
<path fill-rule="evenodd" clip-rule="evenodd" d="M108.09 9.94067L108.089 4.65349L113.198 7.30619L108.09 9.94067ZM119.307 3.73732C119.307 3.73732 119.122 2.44066 118.555 1.86966C117.836 1.1199 117.03 1.11637 116.661 1.07285C114.015 0.882324 110.046 0.882324 110.046 0.882324H110.038C110.038 0.882324 106.069 0.882324 103.423 1.07285C103.053 1.11637 102.248 1.1199 101.528 1.86966C100.962 2.44066 100.777 3.73732 100.777 3.73732C100.777 3.73732 100.588 5.26037 100.588 6.78284V8.21063C100.588 9.73369 100.777 11.2562 100.777 11.2562C100.777 11.2562 100.962 12.5528 101.528 13.1238C102.248 13.8736 103.193 13.8501 103.613 13.9283C105.126 14.0729 110.042 14.1176 110.042 14.1176C110.042 14.1176 114.015 14.1117 116.661 13.9212C117.03 13.8771 117.836 13.8736 118.555 13.1238C119.122 12.5528 119.307 11.2562 119.307 11.2562C119.307 11.2562 119.496 9.73369 119.496 8.21063V6.78284C119.496 5.26037 119.307 3.73732 119.307 3.73732Z" fill="#AEAEAE"/>
<path fill-rule="evenodd" clip-rule="evenodd" d="M66.1765 12.6162C67.6987 13.565 69.5059 14.1176 71.449 14.1176C77.776 14.1176 81.2353 9.02534 81.2353 4.60971C81.2353 4.46495 81.232 4.32185 81.2253 4.17874C81.8976 3.70723 82.481 3.11909 82.9412 2.44905C82.3251 2.71541 81.662 2.89409 80.9663 2.9735C81.6763 2.56238 82.2203 1.90558 82.4785 1.12635C81.8137 1.50852 81.0769 1.78646 80.294 1.93618C79.667 1.28766 78.7726 0.882324 77.7835 0.882324C75.8841 0.882324 74.3434 2.37709 74.3434 4.22175C74.3434 4.48481 74.3744 4.73876 74.4331 4.98361C71.5747 4.84464 69.039 3.51449 67.3441 1.4928C67.0482 1.98747 66.8781 2.5599 66.8781 3.17286C66.8781 4.33177 67.4849 5.35503 68.4078 5.95392C67.8437 5.93821 67.3139 5.78683 66.8496 5.53618C66.8496 5.55025 66.8496 5.56431 66.8496 5.57837C66.8496 7.19639 68.0365 8.54804 69.6082 8.85494C69.3207 8.93187 69.0164 8.97157 68.7029 8.97157C68.4808 8.97157 68.2653 8.95172 68.0558 8.91201C68.4925 10.2405 69.7633 11.2067 71.2679 11.2323C70.091 12.129 68.6098 12.6617 66.9971 12.6617C66.7196 12.6617 66.4464 12.6485 66.1765 12.6162Z" fill="#AEAEAE"/>
</svg>
